<svg width="17" height="18" viewBox="0 0 17 18" fill="none" xmlns="http://www.w3.org/2000/svg">
<g clip-path="url(#clip0_3483_64)">
<path d="M14.3265 11.8119C14.3265 11.5555 14.2367 11.3376 14.0573 11.1581L12.0572 9.15801C11.8777 8.97852 11.6598 8.88877 11.4033 8.88877C11.1341 8.88877 10.9033 8.99134 10.711 9.19647C10.7302 9.21571 10.7911 9.275 10.8937 9.37436C10.9963 9.47372 11.0652 9.54264 11.1004 9.5811C11.1357 9.61956 11.1838 9.68046 11.2447 9.7638C11.3056 9.84713 11.3473 9.92886 11.3697 10.009C11.3921 10.0891 11.4033 10.1773 11.4033 10.2734C11.4033 10.5298 11.3136 10.7478 11.1341 10.9273C10.9546 11.1068 10.7367 11.1965 10.4802 11.1965C10.3841 11.1965 10.2959 11.1853 10.2158 11.1629C10.1357 11.1404 10.0539 11.0988 9.97061 11.0379C9.88728 10.977 9.82638 10.9289 9.78792 10.8936C9.74945 10.8584 9.68054 10.7895 9.58118 10.6869C9.48182 10.5843 9.42252 10.5234 9.40329 10.5042C9.19175 10.7029 9.08597 10.9369 9.08597 11.2061C9.08597 11.4626 9.17572 11.6805 9.35521 11.86L11.336 13.8504C11.5091 14.0235 11.7271 14.1101 11.9899 14.1101C12.2463 14.1101 12.4643 14.0267 12.6438 13.8601L14.0573 12.4562C14.2367 12.2767 14.3265 12.0619 14.3265 11.8119ZM7.5667 5.0329C7.5667 4.77649 7.47696 4.55853 7.29747 4.37904L5.31665 2.3886C5.13715 2.20911 4.9192 2.11937 4.66278 2.11937C4.41278 2.11937 4.19482 2.20591 4.00892 2.37899L2.59542 3.78287C2.41593 3.96236 2.32618 4.17711 2.32618 4.42712C2.32618 4.68354 2.41593 4.90149 2.59542 5.08098L4.59547 7.08103C4.76855 7.25412 4.98651 7.34066 5.24934 7.34066C5.51857 7.34066 5.74935 7.24129 5.94166 7.04257C5.92243 7.02334 5.86153 6.96404 5.75896 6.86468C5.6564 6.76532 5.58749 6.69641 5.55223 6.65795C5.51697 6.61948 5.46889 6.55858 5.40799 6.47525C5.34709 6.39191 5.30543 6.31018 5.28299 6.23005C5.26055 6.14992 5.24934 6.06178 5.24934 5.96562C5.24934 5.7092 5.33908 5.49125 5.51857 5.31176C5.69807 5.13227 5.91602 5.04252 6.17244 5.04252C6.26859 5.04252 6.35674 5.05374 6.43687 5.07617C6.517 5.09861 6.59873 5.14028 6.68207 5.20118C6.7654 5.26208 6.8263 5.31015 6.86476 5.34541C6.90322 5.38067 6.97214 5.44958 7.0715 5.55215C7.17086 5.65471 7.23016 5.71561 7.24939 5.73485C7.46093 5.53612 7.5667 5.30214 7.5667 5.0329ZM15.365 9.85034C15.9035 10.3888 16.1727 11.0427 16.1727 11.8119C16.1727 12.5812 15.9003 13.2318 15.3554 13.7639L13.9419 15.1678C13.4098 15.6998 12.7591 15.9659 11.9899 15.9659C11.2142 15.9659 10.5604 15.6934 10.0283 15.1486L8.04749 13.1581C7.51542 12.6261 7.24939 11.9754 7.24939 11.2061C7.24939 10.4177 7.53145 9.74777 8.09556 9.19647L7.24939 8.3503C6.69809 8.91442 6.03141 9.19647 5.24934 9.19647C4.48008 9.19647 3.82622 8.92724 3.28775 8.38876L1.28769 6.38871C0.749218 5.85023 0.47998 5.19637 0.47998 4.42712C0.47998 3.65787 0.752423 3.00721 1.29731 2.47514L2.71081 1.07126C3.24287 0.539197 3.89353 0.273164 4.66278 0.273164C5.43844 0.273164 6.09231 0.545608 6.62437 1.09049L8.60519 3.08093C9.13726 3.613 9.40329 4.26365 9.40329 5.0329C9.40329 5.82139 9.12123 6.49127 8.55711 7.04257L9.40329 7.88875C9.95459 7.32463 10.6213 7.04257 11.4033 7.04257C12.1726 7.04257 12.8265 7.31181 13.3649 7.85028L15.365 9.85034Z" fill="white"/>
</g>
<defs>
<clipPath id="clip0_3483_64">
<rect width="16.0135" height="17.2312" fill="white" transform="matrix(1 0 0 -1 0.473389 17.3504)"/>
</clipPath>
</defs>
</svg>
