<svg width="22" height="21" viewBox="0 0 22 21" fill="none" xmlns="http://www.w3.org/2000/svg">
<path d="M20.3496 11.0988H20.005V3.86165C20.005 2.9886 19.7063 2.2534 19.109 1.65605C18.5116 1.0587 17.7994 0.760027 16.9723 0.760027C16.1452 0.760027 15.4904 1.01275 15.008 1.5182C14.5255 2.02365 14.2383 2.68992 14.1464 3.51702C13.7329 3.60892 13.3997 3.8157 13.147 4.13735C12.8943 4.459 12.7679 4.8266 12.7679 5.24014C12.7679 5.46989 12.8828 5.58477 13.1125 5.58477H15.8695C16.0993 5.58477 16.2142 5.46989 16.2142 5.24014C16.2142 4.8266 16.0878 4.459 15.8351 4.13735C15.5823 3.8157 15.2492 3.6319 14.8357 3.58595C14.8816 2.9886 15.0884 2.48315 15.456 2.0696C15.8236 1.65605 16.329 1.44928 16.9723 1.44928C17.6156 1.44928 18.167 1.67903 18.6265 2.13853C19.086 2.59802 19.3158 3.1724 19.3158 3.86165V11.0988H8.97704C8.88514 10.6852 8.67837 10.3521 8.35672 10.0993C8.03507 9.84662 7.66747 9.72026 7.25392 9.72026C6.88632 9.26076 6.42682 9.03101 5.87542 9.03101C5.55377 9.03101 5.2551 9.11142 4.9794 9.27225C4.7037 9.43307 4.49692 9.65134 4.35907 9.92704C4.03742 9.78919 3.73875 9.72026 3.46305 9.72026C3.0495 9.72026 2.6819 9.84662 2.36025 10.0993C2.0386 10.3521 1.83183 10.6852 1.73993 11.0988C1.46423 11.0988 1.22299 11.2021 1.01622 11.4089C0.809442 11.6157 0.706055 11.8569 0.706055 12.1326C0.706055 12.4083 0.809442 12.6496 1.01622 12.8563C1.22299 13.0631 1.46423 13.1665 1.73993 13.1665H2.15348L3.11843 16.8195C3.25628 17.3709 3.54346 17.8189 3.97999 18.1636C4.41651 18.5082 4.91047 18.6805 5.46187 18.6805H5.73757L5.2551 19.5765C5.20915 19.6684 5.19766 19.7603 5.22063 19.8522C5.24361 19.9441 5.28956 20.0016 5.35848 20.0245C5.42741 20.0475 5.50782 20.059 5.59972 20.059C5.69162 20.059 5.78352 19.9901 5.87542 19.8522L6.42682 18.6805H16.0074L16.6277 19.8522C16.6737 19.9901 16.7541 20.059 16.8689 20.059C16.9838 20.059 17.0642 20.036 17.1102 19.9901C17.1561 19.9441 17.1906 19.8752 17.2136 19.7833C17.2365 19.6914 17.2251 19.5995 17.1791 19.5076L16.7656 18.6805C17.271 18.6805 17.742 18.5082 18.1785 18.1636C18.615 17.8189 18.9022 17.3939 19.0401 16.8884L19.9361 13.1665H20.3496C20.6253 13.1665 20.8666 13.0631 21.0734 12.8563C21.2801 12.6496 21.3835 12.4083 21.3835 12.1326C21.3835 11.8569 21.2801 11.6157 21.0734 11.4089C20.8666 11.2021 20.6253 11.0988 20.3496 11.0988ZM15.5249 4.89552H13.5261C13.572 4.71172 13.6984 4.5509 13.9052 4.41305C14.1119 4.2752 14.3187 4.20627 14.5255 4.20627C14.7323 4.20627 14.9276 4.26371 15.1114 4.37858C15.2952 4.49346 15.433 4.66577 15.5249 4.89552ZM3.46305 10.4095C3.7847 10.4095 4.0604 10.5474 4.29015 10.8231C4.38205 10.915 4.49692 10.9379 4.63477 10.892C4.77262 10.846 4.84155 10.7541 4.84155 10.6163C4.93345 10.3406 5.0713 10.1223 5.2551 9.9615C5.4389 9.80067 5.64567 9.72026 5.87542 9.72026C6.33492 9.72026 6.65657 9.88109 6.84037 10.2027C6.84037 10.2946 6.87483 10.3521 6.94376 10.375C7.01268 10.398 7.09309 10.4095 7.18499 10.4095H7.32284C7.50664 10.4095 7.69044 10.4669 7.87424 10.5818C8.05804 10.6967 8.17292 10.869 8.21887 11.0988H2.4981C2.59 10.869 2.71636 10.6967 2.87719 10.5818C3.03801 10.4669 3.2333 10.4095 3.46305 10.4095ZM18.4197 16.6817C18.2819 17.0493 18.0636 17.3594 17.765 17.6122C17.4663 17.8649 17.1102 17.9912 16.6966 17.9912H5.46187C5.04832 17.9912 4.69221 17.8649 4.39354 17.6122C4.09486 17.3594 3.89957 17.0493 3.80767 16.6817L2.91165 13.1665H19.2468L18.4197 16.6817ZM20.3496 12.4773H19.6604H1.73993C1.51018 12.4773 1.3953 12.3624 1.3953 12.1326C1.3953 11.9029 1.51018 11.788 1.73993 11.788H20.3496C20.5794 11.788 20.6943 11.9029 20.6943 12.1326C20.6943 12.3624 20.5794 12.4773 20.3496 12.4773ZM13.1125 7.10112C13.3423 7.10112 13.4572 7.00922 13.4572 6.82542V6.61864C13.4572 6.38889 13.3423 6.27402 13.1125 6.27402C12.8828 6.27402 12.7679 6.38889 12.7679 6.61864V6.75649C12.7679 6.98624 12.8828 7.10112 13.1125 7.10112ZM13.1125 8.75531C13.2044 8.75531 13.2848 8.70936 13.3538 8.61746C13.4227 8.52556 13.4572 8.45664 13.4572 8.41069V7.99714C13.4572 7.76739 13.3423 7.65251 13.1125 7.65251C12.8828 7.65251 12.7679 7.76739 12.7679 7.99714V8.41069C12.7679 8.64044 12.8828 8.75531 13.1125 8.75531ZM13.1125 10.0649C13.3423 10.0649 13.4572 9.95001 13.4572 9.72026V9.58241C13.4572 9.35266 13.3423 9.23779 13.1125 9.23779C12.8828 9.23779 12.7679 9.35266 12.7679 9.58241V9.72026C12.7679 9.95001 12.8828 10.0649 13.1125 10.0649ZM14.491 7.10112C14.7208 7.10112 14.8357 7.00922 14.8357 6.82542V6.61864C14.8357 6.38889 14.7208 6.27402 14.491 6.27402C14.2613 6.27402 14.1464 6.38889 14.1464 6.61864V6.75649C14.1464 6.98624 14.2613 7.10112 14.491 7.10112ZM14.1464 8.34176C14.1464 8.57151 14.2613 8.68639 14.491 8.68639C14.5829 8.68639 14.6633 8.65193 14.7323 8.583C14.8012 8.51408 14.8357 8.43366 14.8357 8.34176V7.99714C14.8357 7.76739 14.7208 7.65251 14.491 7.65251C14.2613 7.65251 14.1464 7.76739 14.1464 7.99714V8.34176ZM14.1464 9.72026C14.1464 9.95001 14.2613 10.0649 14.491 10.0649C14.7208 10.0649 14.8357 9.95001 14.8357 9.72026V9.51349C14.8357 9.28374 14.7208 9.16886 14.491 9.16886C14.2613 9.16886 14.1464 9.28374 14.1464 9.51349V9.72026ZM15.8695 7.10112C16.0993 7.10112 16.2142 7.00922 16.2142 6.82542V6.61864C16.2142 6.38889 16.0993 6.27402 15.8695 6.27402C15.6398 6.27402 15.5249 6.38889 15.5249 6.61864V6.75649C15.5249 6.98624 15.6398 7.10112 15.8695 7.10112ZM15.5249 8.34176C15.5249 8.57151 15.6398 8.68639 15.8695 8.68639C15.9614 8.68639 16.0418 8.65193 16.1108 8.583C16.1797 8.51408 16.2142 8.43366 16.2142 8.34176V7.99714C16.2142 7.76739 16.0993 7.65251 15.8695 7.65251C15.6398 7.65251 15.5249 7.76739 15.5249 7.99714V8.34176ZM15.5249 9.72026C15.5249 9.95001 15.6398 10.0649 15.8695 10.0649C16.0993 10.0649 16.2142 9.95001 16.2142 9.72026V9.51349C16.2142 9.28374 16.0993 9.16886 15.8695 9.16886C15.6398 9.16886 15.5249 9.28374 15.5249 9.51349V9.72026Z" fill="#696969"/>
</svg>
