<svg width="19" height="13" viewBox="0 0 19 13" fill="none" xmlns="http://www.w3.org/2000/svg">
<path d="M18.0144 1.50394V11.9658C18.0144 12.235 17.8894 12.4241 17.6394 12.5331C17.5561 12.5651 17.4759 12.5812 17.399 12.5812C17.2259 12.5812 17.0817 12.5203 16.9663 12.3985L13.0912 8.52336V10.1196C13.0912 10.8824 12.8204 11.5347 12.2787 12.0763C11.737 12.618 11.0848 12.8889 10.3219 12.8889H3.55251C2.78967 12.8889 2.1374 12.618 1.59572 12.0763C1.05404 11.5347 0.783203 10.8824 0.783203 10.1196V3.35015C0.783203 2.58731 1.05404 1.93505 1.59572 1.39336C2.1374 0.851685 2.78967 0.580844 3.55251 0.580844H10.3219C11.0848 0.580844 11.737 0.851685 12.2787 1.39336C12.8204 1.93505 13.0912 2.58731 13.0912 3.35015V4.93673L16.9663 1.07124C17.0817 0.949443 17.2259 0.888544 17.399 0.888544C17.4759 0.888544 17.5561 0.904571 17.6394 0.936623C17.8894 1.0456 18.0144 1.23471 18.0144 1.50394Z" fill="white"/>
</svg>
