<svg width="19" height="16" viewBox="0 0 19 16" fill="none" xmlns="http://www.w3.org/2000/svg">
<path d="M5.69756 3.35009C5.69756 3.35009 5.78731 3.43984 5.9668 3.61933C6.14629 3.79882 6.23604 4.14498 6.23604 4.65782C6.23604 5.17065 6.05655 5.60656 5.69756 5.96554C5.33858 6.32453 4.90267 6.50402 4.38984 6.50402C3.877 6.50402 3.44109 6.32453 3.08211 5.96554C2.72313 5.60656 2.54363 5.17065 2.54363 4.65782C2.54363 4.14498 2.72313 3.70908 3.08211 3.35009C3.44109 2.99111 3.877 2.81162 4.38984 2.81162C4.90267 2.81162 5.33858 2.99111 5.69756 3.35009ZM16.0824 8.35022V12.658H2.54363V10.8118L5.62064 7.73482L7.15914 9.27332L12.0823 4.35012L16.0824 8.35022ZM17.0055 1.58082H1.62053C1.5372 1.58082 1.46508 1.61127 1.40418 1.67216C1.34328 1.73306 1.31283 1.80518 1.31283 1.88852V13.5811C1.31283 13.6645 1.34328 13.7366 1.40418 13.7975C1.46508 13.8584 1.5372 13.8888 1.62053 13.8888H17.0055C17.0889 13.8888 17.161 13.8584 17.2219 13.7975C17.2828 13.7366 17.3132 13.6645 17.3132 13.5811V1.88852C17.3132 1.80518 17.2828 1.73306 17.2219 1.67216C17.161 1.61127 17.0889 1.58082 17.0055 1.58082ZM18.5441 1.88852V13.5811C18.5441 14.0042 18.3934 14.3664 18.0921 14.6677C17.7908 14.969 17.4286 15.1196 17.0055 15.1196H1.62053C1.19744 15.1196 0.835256 14.969 0.533966 14.6677C0.232676 14.3664 0.0820312 14.0042 0.0820312 13.5811V1.88852C0.0820312 1.46543 0.232676 1.10324 0.533966 0.80195C0.835256 0.500659 1.19744 0.350014 1.62053 0.350014H17.0055C17.4286 0.350014 17.7908 0.500659 18.0921 0.80195C18.3934 1.10324 18.5441 1.46543 18.5441 1.88852Z" fill="white"/>
</svg>
